<?xml version="1.0" encoding="UTF-8"?>
<svg id="_Слой_1" data-name="Слой 1" xmlns="http://www.w3.org/2000/svg" viewBox="0 0 467.31 468.22">
  <defs>
    <style>
      .cls-1 {
        fill: #312f60;
      }

      .cls-1, .cls-2 {
        stroke-width: 0px;
      }

      .cls-2 {
        fill: #fe924c;
      }
    </style>
  </defs>
  <g id="DBnvux">
    <g>
      <path class="cls-2" d="M149.3,180.47c-44.38,0-88.75,0-133.13,0-1.58,0-3.15.01-4.73-.05-3.17-.13-4.77-1.85-3.86-4.91,4.41-14.81,8.73-29.61,15.78-43.52,5.77-11.39,12.18-22.33,19.44-32.78,8.01-11.53,16.75-22.41,27.25-31.88,6.32-5.7,12.31-11.78,19.06-17.01,16.55-12.81,34.19-23.92,53.46-32.07,12.04-5.09,24.44-9.45,37.36-12.04C199.1,2.37,218.35-.58,237.99.1c12.84.45,25.55,1.86,38.25,4.02,17.46,2.96,34.16,8.19,50.3,15.18,17.34,7.51,33.8,16.52,48.83,28.31,15.38,12.06,28.82,25.96,41.55,40.56,11.5,13.2,20.32,28.31,27.78,44.13,8.07,17.14,14.31,34.96,17.96,53.57,1.91,9.74,3.61,19.53,4.05,29.54.39,8.92.64,17.83.6,26.74-.1,19.54-3.67,38.49-8.81,57.33-5.98,21.9-15.52,42.08-27.95,60.85-5.89,8.89-4.39,10.39-12.74,1.83-9.7-9.96-19.33-19.99-29.03-29.94-1.95-2-2.27-4.08-.82-6.38,8.73-13.9,14.8-29,18.77-44.81,2.92-11.64,5.27-23.4,5.77-35.6.44-10.79.2-21.5-.42-32.2-.4-7.02-1.65-14.03-3.74-20.82-3.16-10.27-5.6-20.78-10.1-30.59-8.64-18.85-19.91-35.95-34.1-51.11-17.09-18.25-37.45-31.85-60.1-42.11-17.5-7.93-36.07-11.57-55.11-13.49-18.36-1.84-36.5-.49-54.33,3.63-9.38,2.17-18.69,5.04-27.71,8.73-9.99,4.08-19.69,8.73-28.7,14.56-13.48,8.73-25.61,19.17-36.38,31.13-.7.78-1.33,1.62-1.91,2.49-1.06,1.59-.5,2.45,1.32,2.56,1.18.07,2.36.05,3.54.05,60.79,0,121.58-.43,182.36.28,19.6.23,38.87,4.63,55.27,16.62,10.83,7.91,18.37,18.37,23.04,31.12,6.25,17.06,5.06,34.42,2.22,51.65-1.79,10.91-7.09,20.73-14.05,29.53-3.33,4.21-6.43,8.57-10.54,12.14-11.1,9.63-23.65,16.31-37.99,19.64-1.44.33-3.53.03-3.94,1.94-.32,1.51,1.21,2.54,2.21,3.52,9.61,9.46,19.32,18.82,28.9,28.32,14.25,14.13,28.41,28.36,42.61,42.54,9.85,9.83,19.7,19.65,29.54,29.49,4.07,4.07,3.98,5.15-.05,9.35-11.47,11.95-23.78,22.91-37.3,32.51-3.38,2.4-5.17,2.25-8.79-1.37-33.14-33.14-66.32-66.24-99.39-99.45-12.04-12.09-24.23-24.02-36-36.38-10.84-11.38-22.41-22.06-33.53-33.16-10.66-10.64-21.17-21.43-31.71-32.19-.98-.99-2.36-2.07-1.6-3.7.72-1.53,2.4-1.47,3.83-1.44,7.99.18,15.97.59,23.96.62,25.34.08,50.68.23,76.01-.08,7.99-.1,15.98-.71,23.98-.59,11.84.17,19.07-8.37,20.37-18.82,1.55-12.4-6.09-18.72-18.59-19.69-8.87-.69-17.84-.15-26.77-.15-36.5,0-73,0-109.49,0Z"/>
      <path class="cls-1" d="M28.83,206.42c7.35,0,14.7-.03,22.06,0,5.11.03,6.55,1.47,5.79,6.38-1.33,8.59-1.73,17.23-1.42,25.89.46,12.98,2.19,25.76,5.19,38.45,6.09,25.76,17.83,48.68,34.15,69.29,7.65,9.66,16.47,18.28,25.94,26.24,16.06,13.51,34.17,23.42,53.74,30.61,8.58,3.15,17.55,5.19,26.66,6.61,7.89,1.23,15.63,3.42,23.72,2.97,1.36-.08,3.26.72,3.87-.96.49-1.34-1.15-2.21-2.04-3.1-24.66-24.71-49.34-49.39-74.02-74.08-6.12-6.12-12.23-12.25-18.34-18.38-2.25-2.26-3.23-4.97-3.23-8.17.03-24.29,0-48.57.03-72.86,0-1.77-.47-3.91,1.68-4.85,2.25-.98,3.69.66,5.09,2.06,16.42,16.41,32.8,32.86,49.25,49.23,16.53,16.46,33.17,32.81,49.68,49.29,11.32,11.3,22.46,22.77,33.74,34.11,15.9,15.98,31.86,31.91,47.8,47.86,7.7,7.7,15.42,15.38,23.08,23.11,2.96,2.98,2.7,4.75-.95,6.61-13.79,7.02-27.92,13.21-42.96,17.13-24.77,6.45-49.97,9.5-75.49,8.01-15.38-.9-30.67-2.91-45.71-7.09-12.91-3.58-25.55-7.68-37.92-12.71-12.58-5.11-23.89-12.54-35.28-19.77-10.98-6.96-20.77-15.51-30.24-24.39-21.99-20.61-38.97-44.76-51.59-72.15-6.79-14.73-12.07-29.89-15.75-45.62C-.4,261.52-.84,236.57.89,211.5c.25-3.56,1.88-5.16,5.49-5.12,7.48.1,14.97.03,22.45.03Z"/>
    </g>
  </g>
</svg>